# xmcd
#
# Track frame offsets: 
#        150
#        19410
#        40199
#        66697
#        88932
#
# Disc length: 1529 seconds
#
# Revision: 0
# Processed by: cddbd v1.5.2PL0 Copyright (c) Steve Scherf et al.
# Submitted via: ExactAudioCopy v0.95b3
#
DISCID=4605f705
DTITLE=Sumac - Soul Heaven
DYEAR=2006
DGENRE=Blues
TTITLE0=Soul Heaven
TTITLE1=Midnight Train To Georgia
TTITLE2=Sumac Blues Medley
TTITLE3=Let's Get It On
TTITLE4=Tonight's The Night
EXTD=
EXTT0=
EXTT1=
EXTT2=
EXTT3=
EXTT4=
PLAYORDER=
